<?xml version="1.0" encoding="UTF-8"?>
<svg width="512" height="160" viewBox="0 0 512 160" fill="none" xmlns="http://www.w3.org/2000/svg">
    <defs>
        <linearGradient id="ff-icon-blue-dark" x1="0" y1="0" x2="1" y2="1">
            <stop offset="0%" stop-color="#60A5FA" />
            <stop offset="100%" stop-color="#1D4ED8" />
        </linearGradient>
        <linearGradient id="ff-icon-green-dark" x1="0" y1="0" x2="1" y2="1">
            <stop offset="0%" stop-color="#A7F3D0" />
            <stop offset="100%" stop-color="#22C55E" />
        </linearGradient>
    </defs>

    <!-- Ícone à esquerda -->
    <g transform="translate(20,20) scale(1.0)">
        <path
            d="M40 110C18 100 5 80 5 58C5 32 24 12 50 12C76 12 95 31 95 58C95 85 76 108 50 112C47 112.4 43 112.4 40 110Z"
            fill="url(#ff-icon-blue-dark)" />
        <path
            d="M20 60C32 70 48 76 66 76C78 76 88 73 96 69C93 77 87 85 79 91C70 82 57 78 42 78C32 78 25 79 20 80C18 74 18 67 20 60Z"
            fill="url(#ff-icon-green-dark)" opacity="0.95" />
        <path d="M18 78C30 86 46 92 64 92C75 92 84 90 92 87C86 97 77 105 66 109C53 103 38 100 24 101C20 94 18 86 18 78Z"
            fill="url(#ff-icon-green-dark)" opacity="0.85" />

        <rect x="34" y="40" width="8" height="30" rx="2" fill="#ECFEFF" opacity="0.98" />
        <rect x="46" y="32" width="8" height="38" rx="2" fill="#ECFEFF" opacity="0.98" />
        <rect x="58" y="26" width="8" height="44" rx="2" fill="#ECFEFF" opacity="0.98" />

        <path d="M30 82C50 60 70 50 92 44L88 38L112 40L103 62L99 56C82 62 64 72 48 88L30 82Z"
            fill="url(#ff-icon-green-dark)" />
    </g>

    <!-- Texto FinanceFlow (Flow mais próximo) -->
    <g transform="translate(150,84)">
        <text x="0" y="0" font-family="system-ui, -apple-system, BlinkMacSystemFont, 'Segoe UI', sans-serif"
            font-size="40" font-weight="600" fill="#BFDBFE">
            Finance
        </text>
        <!-- X REDUZIDO aqui também -->
        <text x="160" y="0" font-family="system-ui, -apple-system, BlinkMacSystemFont, 'Segoe UI', sans-serif"
            font-size="40" font-weight="600" fill="#BBF7D0">
            Flow
        </text>
    </g>
</svg>